# xmcd CD database file
#
# Track frame offsets:
#	150
#	26595
#	44250
#	61735
#	84487
#	107987
#	131980
#	155610
#
# Disc length: 2362 seconds
#
# Revision: 0
# Processed by: cddbd v1.5PL3 Copyright (c) Steve Scherf et al.
# Submitted via: CDex 1.50
#
DISCID=67093808
DTITLE=Eric Gale - Negril
DYEAR=2003
DGENRE=Fusion
TTITLE0=Lighthouse 
TTITLE1=East Side West Side 
TTITLE2=Red Gound Funk 
TTITLE3=Negril
TTITLE4=Honey Coral Rock 
TTITLE5=Rasta
TTITLE6=Negril Sea Sunset 
TTITLE7=I Shot the Sheriff 
EXTD=YEAR: 2003/08/09
EXTT0=
EXTT1=
EXTT2=
EXTT3=
EXTT4=
EXTT5=
EXTT6=
EXTT7=
PLAYORDER=
